# xmcd CD database file
#
# Track frame offsets:
#	150
#	11897
#	24309
#	35780
#	45523
#	54008
#	67182
#	78418
#	94769
#	107601
#	123270
#	139589
#	155008
#	173903
#	190291
#	213121
#
# Disc length: 2958 seconds
#
# Revision: 0
# Processed by: cddbd v1.4PL0 Copyright (c) Steve Scherf et al.
# Submitted via: NeoAudio 9.9.9
#
DISCID=d20b8c10
DTITLE=Various Artist - Full Tank, Vol. 1
DYEAR=1900
DGENRE=Country
TTITLE0=Trouble  performed by Creosote 
TTITLE1=King of the Minimum Wage  performed by Mulehead
TTITLE2=All the Pretty Girls Leave Town  performed by Tim Easton
TTITLE3=Where You Belong  performed by Trailor Park Casanovas
TTITLE4=Springfield  performed by Supperbell Roundup
TTITLE5=Back for No Good Reason  performed by Blazing Haley
TTITLE6=Always Country  performed by Foggy Mountain Fuckers 
TTITLE7=Gunstore, Liquorstore Project  performed by wilson Gil - Willful Sinners 
TTITLE8=Redneck Riot  performed by The Countrypolitans 
TTITLE9=River Red  performed by Steve Pride
TTITLE10=Jericho's Pool  performed by Ventilator
TTITLE11=Scarlet Red  performed by Harris, D. Braxton 
TTITLE12=Wishful Thinkin'  performed by Boondogs 
TTITLE13=Idabel Blues  performed by Red Dirt Rangers
TTITLE14=Preacherman  performed by Spradlin, Gregory Joe 
TTITLE15=That's Why I'm Unhappy  performed by Slim Cessna's Auto Club - 1:57
EXTD=
EXTT0=
EXTT1=
EXTT2=
EXTT3=
EXTT4=
EXTT5=
EXTT6=
EXTT7=
EXTT8=
EXTT9=
EXTT10=
EXTT11=
EXTT12=
EXTT13=
EXTT14=
EXTT15=
PLAYORDER=
